<svg width="32" height="32" viewBox="0 0 32 32" xmlns="http://www.w3.org/2000/svg">
  <defs>
    <linearGradient id="heartGradient" x1="0%" y1="0%" x2="100%" y2="100%">
      <stop offset="0%" stop-color="#FF6B6B" />
      <stop offset="100%" stop-color="#FF8E8E" />
    </linearGradient>
    <filter id="shadow" x="-20%" y="-20%" width="140%" height="140%">
      <feGaussianBlur in="SourceAlpha" stdDeviation="2" />
      <feOffset dx="1" dy="1" result="offsetblur" />
      <feFlood flood-color="rgba(0,0,0,0.3)" />
      <feComposite in2="offsetblur" operator="in" />
      <feMerge>
        <feMergeNode />
        <feMergeNode in="SourceGraphic" />
      </feMerge>
    </filter>
  </defs>
  
  <circle cx="16" cy="16" r="14" fill="#FFD6D6" />
  
  <path d="M16 26C16 26 9 20 9 14C9 10.6863 11.6863 8 15 8C16.6569 8 18 8.5 19 9.5C20 8.5 21.3431 8 23 8C26.3137 8 29 10.6863 29 14C29 20 22 26 16 26Z" 
        fill="url(#heartGradient)" 
        filter="url(#shadow)" 
        stroke="#FF5252" 
        stroke-width="1" />
        
  <circle cx="13" cy="13" r="1" fill="white" />
  <circle cx="19" cy="13" r="1" fill="white" />
  
  <path d="M12 18C12 18 14 20 16 20C18 20 20 18 20 18" 
        stroke="white" 
        stroke-width="1.5" 
        stroke-linecap="round" 
        fill="none" />
</svg>